<?xml version="1.0" standalone="no"?>
<!DOCTYPE svg PUBLIC "-//W3C//DTD SVG 20010904//EN"
 "http://www.w3.org/TR/2001/REC-SVG-20010904/DTD/svg10.dtd">
<svg version="1.0" xmlns="http://www.w3.org/2000/svg"
 width="700.000000pt" height="700.000000pt" viewBox="0 0 700.000000 700.000000"
 preserveAspectRatio="xMidYMid meet">
<metadata>
Created by potrace 1.11, written by Peter Selinger 2001-2013
</metadata>
<g transform="translate(0.000000,700.000000) scale(0.100000,-0.100000)"
fill="#000000" stroke="none">
<path d="M431 6984 c-158 -32 -290 -132 -366 -275 -70 -133 -65 128 -64 -3209
1 -2504 3 -3026 14 -3078 17 -78 75 -186 132 -247 59 -61 151 -120 232 -147
l66 -21 2145 -2 c1770 -1 2155 1 2205 12 202 45 357 194 411 393 16 60 17 155
18 1237 l1 1171 22 26 c26 30 36 32 53 10 29 -34 84 -50 123 -35 26 10 1364
1342 1428 1421 64 80 107 171 135 291 3 13 7 71 9 129 7 254 -112 475 -333
623 -195 129 -463 148 -679 47 -108 -50 -151 -86 -456 -389 -164 -163 -299
-297 -300 -298 -2 -1 -3 404 -2 900 0 496 -3 933 -7 970 -22 220 -173 397
-393 464 -44 14 -301 16 -2191 17 -1683 2 -2155 -1 -2203 -10z"/>
</g>
</svg>
